<?xml version="1.0" encoding="UTF-8"?>
<svg xmlns="http://www.w3.org/2000/svg" viewBox="0 0 800 800" fill="none">
  <!-- Background -->
  <rect width="800" height="800" fill="#f5f5f5" rx="3"/>
  
  <!-- Warehouse Building Outline -->
  <path d="M150 500 L400 300 L650 500 L650 700 L150 700 L150 500 Z" fill="#FFFFFF" stroke="#333333" stroke-width="12"/>
  
  <!-- Roof -->
  <path d="M150 500 L400 300 L650 500" fill="none" stroke="#333333" stroke-width="16" stroke-linejoin="round"/>
  
  <!-- Door -->
  <path d="M350 700 L350 550 L450 550 L450 700" fill="none" stroke="#333333" stroke-width="12"/>
  <line x1="350" y1="550" x2="450" y2="550" stroke="#333333" stroke-width="12"/>
  <circle cx="440" cy="620" r="8" fill="#333333"/> <!-- Door Handle -->
  
  <!-- Windows -->
  <rect x="200" y="550" width="80" height="60" fill="#E0E0E0" stroke="#333333" stroke-width="8"/>
  <line x1="240" y1="550" x2="240" y2="610" stroke="#333333" stroke-width="4"/>
  <line x1="200" y1="580" x2="280" y2="580" stroke="#333333" stroke-width="4"/>
  
  <rect x="520" y="550" width="80" height="60" fill="#E0E0E0" stroke="#333333" stroke-width="8"/>
  <line x1="560" y1="550" x2="560" y2="610" stroke="#333333" stroke-width="4"/>
  <line x1="520" y1="580" x2="600" y2="580" stroke="#333333" stroke-width="4"/>
  
  <!-- Storage Box Elements -->
  <rect x="250" y="450" width="60" height="40" fill="#D4A76A" stroke="#333333" stroke-width="4"/>
  <rect x="490" y="450" width="60" height="40" fill="#D4A76A" stroke="#333333" stroke-width="4"/>
  
  <!-- Forklift Simplified Icon -->
  <g transform="translate(570, 650) scale(0.7)">
    <path d="M0 0 L30 0 L30 -30 L50 -30 L50 0 L60 0 L60 30 L0 30 Z" fill="#FFC107" stroke="#333333" stroke-width="4"/>
    <circle cx="15" cy="30" r="10" fill="#555555" stroke="#333333" stroke-width="3"/>
    <circle cx="45" cy="30" r="10" fill="#555555" stroke="#333333" stroke-width="3"/>
  </g>
</svg>